<svg width="32" height="32" viewBox="0 0 32 32" fill="none" xmlns="http://www.w3.org/2000/svg">
    <path fill-rule="evenodd" clip-rule="evenodd" d="M0 25.6c0 2.804 0 4.363 1.018 5.382C2.037 32 3.596 32 6.4 32h19.2c2.804 0 4.363 0 5.382-1.018C32 29.964 32 28.404 32 25.6V6.4c0-2.804 0-4.363-1.018-5.382C29.964 0 28.404 0 25.6 0H6.4C3.596 0 2.037 0 1.018 1.018 0 2.037 0 3.596 0 6.4v19.2z" fill="#FC3B22"/>
    <path d="M21.826 13.62h4.36V11h-4.36V7H19v10.53c0 2.883 1.436 4.446 4.443 4.446h2.744V19.35h-2.21c-1.485 0-2.15-.601-2.15-2.154V13.62z" fill="#fff"/>
    <path fill-rule="evenodd" clip-rule="evenodd" d="M12.086 10.8c-1.207 0-2.308.442-3.015 1.236h-.245V11H6v15h2.826v-5.349h.245c.654.715 1.716 1.236 3.015 1.236 2.905 0 4.888-2.338 4.888-5.544 0-3.206-1.983-5.543-4.888-5.543zm-.615 8.46c-1.54 0-2.645-1.227-2.645-2.917 0-1.69 1.105-2.916 2.645-2.916 1.55 0 2.676 1.226 2.676 2.916s-1.126 2.917-2.676 2.917z" fill="#fff"/>
</svg>
